<?xml version="1.0" encoding="UTF-8" standalone="no"?>
<!DOCTYPE svg PUBLIC "-//W3C//DTD SVG 1.1//EN"
 "http://www.w3.org/Graphics/SVG/1.1/DTD/svg11.dtd">
<!-- Generated by graphviz version 2.43.0 (0)
 -->
<!-- Title: sourcetree Pages: 1 -->
<svg width="972pt" height="260pt"
 viewBox="0.00 0.00 971.50 260.00" xmlns="http://www.w3.org/2000/svg" xmlns:xlink="http://www.w3.org/1999/xlink">
<g id="graph0" class="graph" transform="scale(1 1) rotate(0) translate(4 256)">
<title>sourcetree</title>
<polygon fill="white" stroke="transparent" points="-4,4 -4,-256 967.5,-256 967.5,4 -4,4"/>
<!-- MulleObjCTimeFoundation -->
<g id="node1" class="node">
<title>MulleObjCTimeFoundation</title>
<polygon fill="yellow" stroke="black" points="672.5,-252 464.5,-252 464.5,-216 672.5,-216 672.5,-252"/>
<text text-anchor="middle" x="568.5" y="-230.3" font-family="Times,serif" font-size="14.00">MulleObjCTimeFoundation</text>
</g>
<!-- MulleObjC -->
<g id="node7" class="node">
<title>MulleObjC</title>
<polygon fill="lightgrey" stroke="black" points="559.5,-180 467.5,-180 467.5,-144 559.5,-144 559.5,-180"/>
<text text-anchor="middle" x="513.5" y="-158.3" font-family="Times,serif" font-size="14.00">MulleObjC</text>
</g>
<!-- MulleObjCTimeFoundation&#45;&gt;MulleObjC -->
<g id="edge11" class="edge">
<title>MulleObjCTimeFoundation&#45;&gt;MulleObjC</title>
<path fill="none" stroke="black" d="M554.9,-215.7C548.38,-207.39 540.43,-197.28 533.25,-188.14"/>
<polygon fill="black" stroke="black" points="535.87,-185.81 526.94,-180.1 530.37,-190.13 535.87,-185.81"/>
</g>
<!-- mulle&#45;time -->
<g id="node13" class="node">
<title>mulle&#45;time</title>
<polygon fill="lightgrey" stroke="black" points="671,-180 578,-180 578,-144 671,-144 671,-180"/>
<text text-anchor="middle" x="624.5" y="-158.3" font-family="Times,serif" font-size="14.00">mulle&#45;time</text>
</g>
<!-- MulleObjCTimeFoundation&#45;&gt;mulle&#45;time -->
<g id="edge12" class="edge">
<title>MulleObjCTimeFoundation&#45;&gt;mulle&#45;time</title>
<path fill="none" stroke="black" d="M582.34,-215.7C588.99,-207.39 597.08,-197.28 604.39,-188.14"/>
<polygon fill="black" stroke="black" points="607.3,-190.1 610.82,-180.1 601.84,-185.73 607.3,-190.1"/>
</g>
<!-- mulle&#45;container -->
<g id="node2" class="node">
<title>mulle&#45;container</title>
<polygon fill="lightgrey" stroke="black" points="242.5,-108 114.5,-108 114.5,-72 242.5,-72 242.5,-108"/>
<text text-anchor="middle" x="178.5" y="-86.3" font-family="Times,serif" font-size="14.00">mulle&#45;container</text>
</g>
<!-- mulle&#45;allocator -->
<g id="node3" class="node">
<title>mulle&#45;allocator</title>
<polygon fill="lightgrey" stroke="black" points="123,-36 0,-36 0,0 123,0 123,-36"/>
<text text-anchor="middle" x="61.5" y="-14.3" font-family="Times,serif" font-size="14.00">mulle&#45;allocator</text>
</g>
<!-- mulle&#45;container&#45;&gt;mulle&#45;allocator -->
<g id="edge1" class="edge">
<title>mulle&#45;container&#45;&gt;mulle&#45;allocator</title>
<path fill="none" stroke="black" d="M149.88,-71.88C134.58,-62.72 115.56,-51.34 99.08,-41.48"/>
<polygon fill="black" stroke="black" points="100.61,-38.32 90.23,-36.19 97.02,-44.33 100.61,-38.32"/>
</g>
<!-- mulle&#45;data -->
<g id="node4" class="node">
<title>mulle&#45;data</title>
<polygon fill="lightgrey" stroke="black" points="233.5,-36 141.5,-36 141.5,0 233.5,0 233.5,-36"/>
<text text-anchor="middle" x="187.5" y="-14.3" font-family="Times,serif" font-size="14.00">mulle&#45;data</text>
</g>
<!-- mulle&#45;container&#45;&gt;mulle&#45;data -->
<g id="edge2" class="edge">
<title>mulle&#45;container&#45;&gt;mulle&#45;data</title>
<path fill="none" stroke="black" d="M180.72,-71.7C181.72,-63.98 182.91,-54.71 184.01,-46.11"/>
<polygon fill="black" stroke="black" points="187.5,-46.47 185.3,-36.1 180.55,-45.58 187.5,-46.47"/>
</g>
<!-- mulle&#45;fprintf -->
<g id="node5" class="node">
<title>mulle&#45;fprintf</title>
<polygon fill="lightgrey" stroke="black" points="368,-108 261,-108 261,-72 368,-72 368,-108"/>
<text text-anchor="middle" x="314.5" y="-86.3" font-family="Times,serif" font-size="14.00">mulle&#45;fprintf</text>
</g>
<!-- mulle&#45;sprintf -->
<g id="node6" class="node">
<title>mulle&#45;sprintf</title>
<polygon fill="lightgrey" stroke="black" points="369,-36 260,-36 260,0 369,0 369,-36"/>
<text text-anchor="middle" x="314.5" y="-14.3" font-family="Times,serif" font-size="14.00">mulle&#45;sprintf</text>
</g>
<!-- mulle&#45;fprintf&#45;&gt;mulle&#45;sprintf -->
<g id="edge3" class="edge">
<title>mulle&#45;fprintf&#45;&gt;mulle&#45;sprintf</title>
<path fill="none" stroke="black" d="M314.5,-71.7C314.5,-63.98 314.5,-54.71 314.5,-46.11"/>
<polygon fill="black" stroke="black" points="318,-46.1 314.5,-36.1 311,-46.1 318,-46.1"/>
</g>
<!-- MulleObjC&#45;&gt;mulle&#45;container -->
<g id="edge4" class="edge">
<title>MulleObjC&#45;&gt;mulle&#45;container</title>
<path fill="none" stroke="black" d="M467.03,-152.03C416.64,-142.2 333.58,-125.73 252.45,-108.18"/>
<polygon fill="black" stroke="black" points="253.09,-104.73 242.57,-106.03 251.6,-111.57 253.09,-104.73"/>
</g>
<!-- MulleObjC&#45;&gt;mulle&#45;fprintf -->
<g id="edge5" class="edge">
<title>MulleObjC&#45;&gt;mulle&#45;fprintf</title>
<path fill="none" stroke="black" d="M467.35,-144.76C439.06,-134.82 402.61,-121.99 372.4,-111.37"/>
<polygon fill="black" stroke="black" points="373.43,-108.02 362.83,-108 371.1,-114.62 373.43,-108.02"/>
</g>
<!-- mulle&#45;multififo -->
<g id="node8" class="node">
<title>mulle&#45;multififo</title>
<polygon fill="lightgrey" stroke="black" points="507,-108 386,-108 386,-72 507,-72 507,-108"/>
<text text-anchor="middle" x="446.5" y="-86.3" font-family="Times,serif" font-size="14.00">mulle&#45;multififo</text>
</g>
<!-- MulleObjC&#45;&gt;mulle&#45;multififo -->
<g id="edge6" class="edge">
<title>MulleObjC&#45;&gt;mulle&#45;multififo</title>
<path fill="none" stroke="black" d="M496.94,-143.7C488.82,-135.22 478.91,-124.86 470.03,-115.58"/>
<polygon fill="black" stroke="black" points="472.31,-112.91 462.87,-108.1 467.26,-117.75 472.31,-112.91"/>
</g>
<!-- mulle&#45;objc&#45;cc -->
<g id="node9" class="node">
<title>mulle&#45;objc&#45;cc</title>
<polygon fill="lightgrey" stroke="black" points="635.5,-108 525.5,-108 525.5,-72 635.5,-72 635.5,-108"/>
<text text-anchor="middle" x="580.5" y="-86.3" font-family="Times,serif" font-size="14.00">mulle&#45;objc&#45;cc</text>
</g>
<!-- MulleObjC&#45;&gt;mulle&#45;objc&#45;cc -->
<g id="edge7" class="edge">
<title>MulleObjC&#45;&gt;mulle&#45;objc&#45;cc</title>
<path fill="none" stroke="black" d="M530.06,-143.7C538.18,-135.22 548.09,-124.86 556.97,-115.58"/>
<polygon fill="black" stroke="black" points="559.74,-117.75 564.13,-108.1 554.69,-112.91 559.74,-117.75"/>
</g>
<!-- mulle&#45;objc&#45;debug -->
<g id="node10" class="node">
<title>mulle&#45;objc&#45;debug</title>
<polygon fill="lightgrey" stroke="black" points="793,-108 654,-108 654,-72 793,-72 793,-108"/>
<text text-anchor="middle" x="723.5" y="-86.3" font-family="Times,serif" font-size="14.00">mulle&#45;objc&#45;debug</text>
</g>
<!-- MulleObjC&#45;&gt;mulle&#45;objc&#45;debug -->
<g id="edge8" class="edge">
<title>MulleObjC&#45;&gt;mulle&#45;objc&#45;debug</title>
<path fill="none" stroke="black" d="M559.59,-145.64C589.91,-135.53 629.94,-122.19 662.85,-111.22"/>
<polygon fill="black" stroke="black" points="663.99,-114.53 672.37,-108.04 661.77,-107.89 663.99,-114.53"/>
</g>
<!-- mulle&#45;objc&#45;runtime -->
<g id="node11" class="node">
<title>mulle&#45;objc&#45;runtime</title>
<polygon fill="lightgrey" stroke="black" points="963.5,-108 811.5,-108 811.5,-72 963.5,-72 963.5,-108"/>
<text text-anchor="middle" x="887.5" y="-86.3" font-family="Times,serif" font-size="14.00">mulle&#45;objc&#45;runtime</text>
</g>
<!-- MulleObjC&#45;&gt;mulle&#45;objc&#45;runtime -->
<g id="edge9" class="edge">
<title>MulleObjC&#45;&gt;mulle&#45;objc&#45;runtime</title>
<path fill="none" stroke="black" d="M559.58,-146.22C562.59,-145.42 565.58,-144.67 568.5,-144 667.94,-121.11 697.13,-125.99 801.11,-108.19"/>
<polygon fill="black" stroke="black" points="801.82,-111.62 811.07,-106.45 800.62,-104.72 801.82,-111.62"/>
</g>
<!-- mulle&#45;concurrent -->
<g id="node12" class="node">
<title>mulle&#45;concurrent</title>
<polygon fill="lightgrey" stroke="black" points="957,-36 818,-36 818,0 957,0 957,-36"/>
<text text-anchor="middle" x="887.5" y="-14.3" font-family="Times,serif" font-size="14.00">mulle&#45;concurrent</text>
</g>
<!-- mulle&#45;objc&#45;runtime&#45;&gt;mulle&#45;concurrent -->
<g id="edge10" class="edge">
<title>mulle&#45;objc&#45;runtime&#45;&gt;mulle&#45;concurrent</title>
<path fill="none" stroke="black" d="M887.5,-71.7C887.5,-63.98 887.5,-54.71 887.5,-46.11"/>
<polygon fill="black" stroke="black" points="891,-46.1 887.5,-36.1 884,-46.1 891,-46.1"/>
</g>
</g>
</svg>
